<svg xmlns="http://www.w3.org/2000/svg" xmlns:xlink="http://www.w3.org/1999/xlink" contentStyleType="text/css" height="748px" preserveAspectRatio="none" style="width:633px;height:748px;background:#FFFFFF;" version="1.1" viewBox="0 0 633 748" width="633px" zoomAndPan="magnify"><defs/><g><!--cluster Chirp Core--><g id="cluster_Chirp Core"><path d="M8.5,6.602 L82.8737,6.602 A3.75,3.75 0 0 1 85.3737,9.102 L92.3737,31.6699 L623.5,31.6699 A2.5,2.5 0 0 1 626,34.1699 L626,738.982 A2.5,2.5 0 0 1 623.5,741.482 L8.5,741.482 A2.5,2.5 0 0 1 6,738.982 L6,9.102 A2.5,2.5 0 0 1 8.5,6.602 " fill="none" style="stroke:#000000;stroke-width:1.5;"/><line style="stroke:#000000;stroke-width:1.5;" x1="6" x2="92.3737" y1="31.6699" y2="31.6699"/><text fill="#000000" font-family="sans-serif" font-size="14" font-weight="bold" lengthAdjust="spacing" textLength="73.3737" x="10" y="23.5679">Chirp Core</text></g><!--class Cheep--><g id="elem_Cheep"><rect codeLine="3" fill="#F1F1F1" height="124.2717" id="Cheep" rx="2.5" ry="2.5" style="stroke:#181818;stroke-width:0.5;" width="286.0911" x="21.95" y="308.942"/><ellipse cx="139.7946" cy="324.942" fill="#ADD1B2" rx="11" ry="11" style="stroke:#181818;stroke-width:1;"/><path d="M139.2634,331.8639 Q137.5134,331.8639 136.3727,331.1295 Q135.2477,330.3795 134.6852,329.0357 Q134.1384,327.6764 134.1384,325.8795 Q134.1384,323.8482 134.7946,322.3951 Q135.4509,320.942 136.7321,320.1607 Q138.0134,319.3795 139.8884,319.3795 Q140.779,319.3795 141.4509,319.567 Q142.1227,319.7389 142.8102,320.0826 L141.9977,322.0982 Q141.3727,321.7857 140.8259,321.6607 Q140.2946,321.5357 139.8102,321.5357 Q138.6384,321.5357 137.9352,322.067 Q137.2321,322.5982 136.9352,323.5514 Q136.6384,324.5045 136.6384,325.7701 Q136.6384,327.7857 137.3571,328.7545 Q138.0759,329.7076 139.6696,329.7076 Q140.2634,329.7076 140.8884,329.5514 Q141.5134,329.3951 142.3415,329.0201 L142.3415,331.2389 Q141.6071,331.5514 140.8102,331.7076 Q140.029,331.8639 139.2634,331.8639 Z " fill="#000000"/><text fill="#000000" font-family="sans-serif" font-size="14" lengthAdjust="spacing" textLength="41.9018" x="160.2946" y="330.374">Cheep</text><line style="stroke:#181818;stroke-width:0.5;" x1="22.95" x2="307.0411" y1="340.942" y2="340.942"/><ellipse cx="32.95" cy="355.9759" fill="none" rx="3" ry="3" style="stroke:#038048;stroke-width:1;"/><text fill="#000000" font-family="sans-serif" font-size="14" lengthAdjust="spacing" textLength="160.6074" x="41.95" y="359.9079">CheepId : int &#171;get&#187; &#171;set&#187;</text><ellipse cx="32.95" cy="375.0439" fill="none" rx="3" ry="3" style="stroke:#038048;stroke-width:1;"/><text fill="#000000" font-family="sans-serif" font-size="14" lengthAdjust="spacing" textLength="229.3192" x="41.95" y="378.9758">&#171;required&#187; Text : string &#171;get&#187; &#171;set&#187;</text><ellipse cx="32.95" cy="394.1118" fill="none" rx="3" ry="3" style="stroke:#038048;stroke-width:1;"/><text fill="#000000" font-family="sans-serif" font-size="14" lengthAdjust="spacing" textLength="260.0911" x="41.95" y="398.0438">&#171;required&#187; AuthorId : string &#171;get&#187; &#171;set&#187;</text><ellipse cx="32.95" cy="413.1797" fill="none" rx="3" ry="3" style="stroke:#038048;stroke-width:1;"/><text fill="#000000" font-family="sans-serif" font-size="14" lengthAdjust="spacing" textLength="149.1134" x="41.95" y="417.1117">TimeStamp : DateTime</text><line style="stroke:#181818;stroke-width:0.5;" x1="22.95" x2="307.0411" y1="425.2136" y2="425.2136"/></g><!--class Author--><g id="elem_Author"><rect codeLine="28" fill="#F1F1F1" height="124.2717" id="Author" rx="2.5" ry="2.5" style="stroke:#181818;stroke-width:0.5;" width="252.2531" x="293.87" y="601.212"/><ellipse cx="392.9686" cy="617.212" fill="#ADD1B2" rx="11" ry="11" style="stroke:#181818;stroke-width:1;"/><path d="M392.4374,624.1339 Q390.6874,624.1339 389.5468,623.3995 Q388.4218,622.6495 387.8593,621.3057 Q387.3124,619.9464 387.3124,618.1495 Q387.3124,616.1182 387.9686,614.6651 Q388.6249,613.212 389.9061,612.4307 Q391.1874,611.6495 393.0624,611.6495 Q393.953,611.6495 394.6249,611.837 Q395.2968,612.0089 395.9843,612.3526 L395.1718,614.3682 Q394.5468,614.0557 393.9999,613.9307 Q393.4686,613.8057 392.9843,613.8057 Q391.8124,613.8057 391.1093,614.337 Q390.4061,614.8682 390.1093,615.8214 Q389.8124,616.7745 389.8124,618.0401 Q389.8124,620.0557 390.5311,621.0245 Q391.2499,621.9776 392.8436,621.9776 Q393.4374,621.9776 394.0624,621.8214 Q394.6874,621.6651 395.5155,621.2901 L395.5155,623.5089 Q394.7811,623.8214 393.9843,623.9776 Q393.203,624.1339 392.4374,624.1339 Z " fill="#000000"/><text fill="#000000" font-family="sans-serif" font-size="14" lengthAdjust="spacing" textLength="45.5558" x="413.4686" y="622.644">Author</text><line style="stroke:#181818;stroke-width:0.5;" x1="294.87" x2="545.1231" y1="633.212" y2="633.212"/><ellipse cx="304.87" cy="648.2459" fill="none" rx="3" ry="3" style="stroke:#038048;stroke-width:1;"/><text fill="#000000" font-family="sans-serif" font-size="14" lengthAdjust="spacing" textLength="179.8573" x="313.87" y="652.1779">ICollection&lt;Cheep&gt; Cheeps</text><ellipse cx="304.87" cy="667.3139" fill="none" rx="3" ry="3" style="stroke:#038048;stroke-width:1;"/><text fill="#000000" font-family="sans-serif" font-size="14" lengthAdjust="spacing" textLength="195.0892" x="313.87" y="671.2458">ICollection&lt;Follow&gt; Following</text><ellipse cx="304.87" cy="686.3818" fill="none" rx="3" ry="3" style="stroke:#038048;stroke-width:1;"/><text fill="#000000" font-family="sans-serif" font-size="14" lengthAdjust="spacing" textLength="194.5992" x="313.87" y="690.3138">ICollection&lt;Follow&gt; Followers</text><ellipse cx="304.87" cy="705.4497" fill="none" rx="3" ry="3" style="stroke:#038048;stroke-width:1;"/><text fill="#000000" font-family="sans-serif" font-size="14" lengthAdjust="spacing" textLength="226.2531" x="313.87" y="709.3817">ICollection&lt;Comment&gt; Comments</text><line style="stroke:#181818;stroke-width:0.5;" x1="294.87" x2="545.1231" y1="717.4836" y2="717.4836"/></g><!--class Comment--><g id="elem_Comment"><rect codeLine="11" fill="#F1F1F1" height="143.3396" id="Comment" rx="2.5" ry="2.5" style="stroke:#181818;stroke-width:0.5;" width="286.0911" x="111.95" y="44.602"/><ellipse cx="218.1957" cy="60.602" fill="#ADD1B2" rx="11" ry="11" style="stroke:#181818;stroke-width:1;"/><path d="M217.6644,67.5239 Q215.9144,67.5239 214.7738,66.7895 Q213.6488,66.0395 213.0863,64.6957 Q212.5394,63.3364 212.5394,61.5395 Q212.5394,59.5082 213.1957,58.0551 Q213.8519,56.602 215.1332,55.8207 Q216.4144,55.0395 218.2894,55.0395 Q219.18,55.0395 219.8519,55.227 Q220.5238,55.3989 221.2113,55.7426 L220.3988,57.7582 Q219.7738,57.4457 219.2269,57.3207 Q218.6957,57.1957 218.2113,57.1957 Q217.0394,57.1957 216.3363,57.727 Q215.6332,58.2582 215.3363,59.2114 Q215.0394,60.1645 215.0394,61.4301 Q215.0394,63.4457 215.7582,64.4145 Q216.4769,65.3676 218.0707,65.3676 Q218.6644,65.3676 219.2894,65.2114 Q219.9144,65.0551 220.7425,64.6801 L220.7425,66.8989 Q220.0082,67.2114 219.2113,67.3676 Q218.43,67.5239 217.6644,67.5239 Z " fill="#000000"/><text fill="#000000" font-family="sans-serif" font-size="14" lengthAdjust="spacing" textLength="65.0997" x="238.6957" y="66.034">Comment</text><line style="stroke:#181818;stroke-width:0.5;" x1="112.95" x2="397.0411" y1="76.602" y2="76.602"/><ellipse cx="122.95" cy="91.6359" fill="none" rx="3" ry="3" style="stroke:#038048;stroke-width:1;"/><text fill="#000000" font-family="sans-serif" font-size="14" lengthAdjust="spacing" textLength="183.8053" x="131.95" y="95.5679">CommentId : int &#171;get&#187; &#171;set&#187;</text><ellipse cx="122.95" cy="110.7039" fill="none" rx="3" ry="3" style="stroke:#038048;stroke-width:1;"/><text fill="#000000" font-family="sans-serif" font-size="14" lengthAdjust="spacing" textLength="229.3192" x="131.95" y="114.6358">&#171;required&#187; Text : string &#171;get&#187; &#171;set&#187;</text><ellipse cx="122.95" cy="129.7718" fill="none" rx="3" ry="3" style="stroke:#038048;stroke-width:1;"/><text fill="#000000" font-family="sans-serif" font-size="14" lengthAdjust="spacing" textLength="260.0911" x="131.95" y="133.7038">&#171;required&#187; AuthorId : string &#171;get&#187; &#171;set&#187;</text><ellipse cx="122.95" cy="148.8397" fill="none" rx="3" ry="3" style="stroke:#038048;stroke-width:1;"/><text fill="#000000" font-family="sans-serif" font-size="14" lengthAdjust="spacing" textLength="235.3391" x="131.95" y="152.7717">&#171;required&#187; CheepId : int &#171;get&#187; &#171;set&#187;</text><ellipse cx="122.95" cy="167.9076" fill="none" rx="3" ry="3" style="stroke:#038048;stroke-width:1;"/><text fill="#000000" font-family="sans-serif" font-size="14" lengthAdjust="spacing" textLength="149.1134" x="131.95" y="171.8396">TimeStamp : DateTime</text><line style="stroke:#181818;stroke-width:0.5;" x1="112.95" x2="397.0411" y1="179.9416" y2="179.9416"/></g><!--class Follow--><g id="elem_Follow"><rect codeLine="21" fill="#F1F1F1" height="86.1358" id="Follow" rx="2.5" ry="2.5" style="stroke:#181818;stroke-width:0.5;" width="230.8192" x="379.59" y="328.002"/><ellipse cx="469.5327" cy="344.002" fill="#ADD1B2" rx="11" ry="11" style="stroke:#181818;stroke-width:1;"/><path d="M469.0015,350.9239 Q467.2515,350.9239 466.1108,350.1895 Q464.9858,349.4395 464.4233,348.0957 Q463.8765,346.7364 463.8765,344.9395 Q463.8765,342.9082 464.5327,341.4551 Q465.189,340.002 466.4702,339.2207 Q467.7515,338.4395 469.6265,338.4395 Q470.5171,338.4395 471.189,338.627 Q471.8608,338.7989 472.5483,339.1426 L471.7358,341.1582 Q471.1108,340.8457 470.564,340.7207 Q470.0327,340.5957 469.5483,340.5957 Q468.3765,340.5957 467.6733,341.127 Q466.9702,341.6582 466.6733,342.6114 Q466.3765,343.5645 466.3765,344.8301 Q466.3765,346.8457 467.0952,347.8145 Q467.814,348.7676 469.4077,348.7676 Q470.0015,348.7676 470.6265,348.6114 Q471.2515,348.4551 472.0796,348.0801 L472.0796,350.2989 Q471.3452,350.6114 470.5483,350.7676 Q469.7671,350.9239 469.0015,350.9239 Z " fill="#000000"/><text fill="#000000" font-family="sans-serif" font-size="14" lengthAdjust="spacing" textLength="42.4338" x="490.0327" y="349.434">Follow</text><line style="stroke:#181818;stroke-width:0.5;" x1="380.59" x2="609.4092" y1="360.002" y2="360.002"/><ellipse cx="390.59" cy="375.0359" fill="none" rx="3" ry="3" style="stroke:#038048;stroke-width:1;"/><text fill="#000000" font-family="sans-serif" font-size="14" lengthAdjust="spacing" textLength="201.9913" x="399.59" y="378.9679">FollowerId : string? &#171;get&#187; &#171;set&#187;</text><ellipse cx="390.59" cy="394.1039" fill="none" rx="3" ry="3" style="stroke:#038048;stroke-width:1;"/><text fill="#000000" font-family="sans-serif" font-size="14" lengthAdjust="spacing" textLength="204.8192" x="399.59" y="398.0358">FollowedId : string? &#171;get&#187; &#171;set&#187;</text><line style="stroke:#181818;stroke-width:0.5;" x1="380.59" x2="609.4092" y1="406.1378" y2="406.1378"/></g><!--class IdentityUser--><g id="elem_IdentityUser"><rect fill="#F1F1F1" height="48" id="IdentityUser" rx="2.5" ry="2.5" style="stroke:#181818;stroke-width:0.5;" width="113.3817" x="456.31" y="493.212"/><ellipse cx="471.31" cy="509.212" fill="#ADD1B2" rx="11" ry="11" style="stroke:#181818;stroke-width:1;"/><path d="M470.7788,516.1339 Q469.0288,516.1339 467.8881,515.3995 Q466.7631,514.6495 466.2006,513.3057 Q465.6538,511.9464 465.6538,510.1495 Q465.6538,508.1182 466.31,506.6651 Q466.9663,505.212 468.2475,504.4307 Q469.5288,503.6495 471.4038,503.6495 Q472.2944,503.6495 472.9663,503.837 Q473.6381,504.0089 474.3256,504.3526 L473.5131,506.3682 Q472.8881,506.0557 472.3413,505.9307 Q471.81,505.8057 471.3256,505.8057 Q470.1538,505.8057 469.4506,506.337 Q468.7475,506.8682 468.4506,507.8214 Q468.1538,508.7745 468.1538,510.0401 Q468.1538,512.0557 468.8725,513.0245 Q469.5913,513.9776 471.185,513.9776 Q471.7788,513.9776 472.4038,513.8214 Q473.0288,513.6651 473.8569,513.2901 L473.8569,515.5089 Q473.1225,515.8214 472.3256,515.9776 Q471.5444,516.1339 470.7788,516.1339 Z " fill="#000000"/><text fill="#000000" font-family="sans-serif" font-size="14" lengthAdjust="spacing" textLength="81.3817" x="485.31" y="514.644">IdentityUser</text><line style="stroke:#181818;stroke-width:0.5;" x1="457.31" x2="568.6917" y1="525.212" y2="525.212"/><line style="stroke:#181818;stroke-width:0.5;" x1="457.31" x2="568.6917" y1="533.212" y2="533.212"/></g><!--link Cheep to Author--><g id="link_Cheep_Author"><path codeLine="9" d="M219.08,433.632 C262.35,482.892 322.75,551.642 366,600.872 " fill="none" id="Cheep-Author" style="stroke:#181818;stroke-width:1;"/><text fill="#000000" font-family="sans-serif" font-size="13" lengthAdjust="spacing" textLength="22.438" x="201.5457" y="454.8929">0..n</text><text fill="#000000" font-family="sans-serif" font-size="13" lengthAdjust="spacing" textLength="21.84" x="337.5911" y="589.6032">1..1</text></g><!--link Comment to Author--><g id="link_Comment_Author"><path codeLine="18" d="M283.09,188.162 C296.85,224.072 313.17,268.522 326,308.942 C343.22,363.172 382.41,514.722 404.36,600.722 " fill="none" id="Comment-Author" style="stroke:#181818;stroke-width:1;"/><text fill="#000000" font-family="sans-serif" font-size="13" lengthAdjust="spacing" textLength="22.438" x="262.7402" y="209.7548">0..n</text><text fill="#000000" font-family="sans-serif" font-size="13" lengthAdjust="spacing" textLength="21.84" x="380.3865" y="589.4359">1..1</text></g><!--link Comment to Cheep--><g id="link_Comment_Cheep"><path codeLine="19" d="M229.69,188.362 C216.22,226.192 199.83,272.242 186.91,308.522 " fill="none" id="Comment-Cheep" style="stroke:#181818;stroke-width:1;"/><text fill="#000000" font-family="sans-serif" font-size="13" lengthAdjust="spacing" textLength="22.438" x="204.3633" y="209.7209">0..n</text><text fill="#000000" font-family="sans-serif" font-size="13" lengthAdjust="spacing" textLength="21.84" x="167.2784" y="297.244">1..1</text></g><!--link Follow to Author--><g id="link_Follow_Author"><path codeLine="25" d="M455.68,414.522 C442.18,437.202 429.11,465.982 421.5,493.212 C411.76,528.072 406.99,568.302 406.58,600.772 " fill="none" id="Follow-Author" style="stroke:#181818;stroke-width:1;"/><text fill="#000000" font-family="sans-serif" font-size="13" lengthAdjust="spacing" textLength="22.438" x="426.3215" y="436.1013">0..n</text><text fill="#000000" font-family="sans-serif" font-size="13" lengthAdjust="spacing" textLength="21.84" x="406.2913" y="589.4917">1..1</text></g><!--link Follow to Author--><g id="link_Follow_Author"><path codeLine="26" d="M486.89,414.522 C477.18,437.202 464.11,465.982 456.5,493.212 C446.76,528.072 441.99,568.302 437.75,600.772 " fill="none" id="Follow-Author-1" style="stroke:#181818;stroke-width:1;"/><text fill="#000000" font-family="sans-serif" font-size="13" lengthAdjust="spacing" textLength="22.438" x="462.1154" y="436.1013">0..n</text><text fill="#000000" font-family="sans-serif" font-size="13" lengthAdjust="spacing" textLength="21.84" x="441.0654" y="589.4917">1..1</text></g><!--reverse link IdentityUser to Author--><g id="link_IdentityUser_Author"><path codeLine="34" d="M488.0874,556.8146 C477.6874,572.9246 473.14,579.982 459.62,600.932 " fill="none" id="IdentityUser-backto-Author" style="stroke:#181818;stroke-width:1;"/><polygon fill="none" points="497.85,541.692,483.0466,553.5604,493.1283,560.0687,497.85,541.692" style="stroke:#181818;stroke-width:1;"/></g><!--SRC=[pL91JiCm4Bpx5IjVgqJqMbb1A0WfPye3h6ILM2Hni5q1WloTRRofGE2sHt9nnZkxEpCoY4dNpxf5a6Ldt0IbTIZXGm1zTQ-zXx93dFXc4r7Lm0xC642f5aDHqEcF9tEKSlXoC0uRAktnBH3R1sV6zfg6kqFeh5jMd6tQcm4VWnuc8jxhW4SiPX7bofiy7oLaMGPoc-TRoME5O5Ds690Cd6n5_2-C_MYw9kzK4kmncKMQi6nTitgmVMzVJr55YD-Dt2Q4CRKvIvq5BqZgl5HddH6jEgkIkh0EnevgiSDP-j_bEBzWkIJo4WNT7rCupM9zIvwSLGtzcF3-vD61-YJbB7d-0W00]--></g></svg>