<svg xmlns="http://www.w3.org/2000/svg" xmlns:xlink="http://www.w3.org/1999/xlink" contentStyleType="text/css" height="579px" preserveAspectRatio="none" style="width:782px;height:579px;background:#FFFFFF;" version="1.1" viewBox="0 0 782 579" width="782px" zoomAndPan="magnify"><defs/><g><!--cluster Chirp Core--><g id="cluster_Chirp Core"><path d="M8.5,6.602 L82.8737,6.602 A3.75,3.75 0 0 1 85.3737,9.102 L92.3737,31.6699 L772.5,31.6699 A2.5,2.5 0 0 1 775,34.1699 L775,569.982 A2.5,2.5 0 0 1 772.5,572.482 L8.5,572.482 A2.5,2.5 0 0 1 6,569.982 L6,9.102 A2.5,2.5 0 0 1 8.5,6.602 " fill="none" style="stroke:#000000;stroke-width:1.5;"/><line style="stroke:#000000;stroke-width:1.5;" x1="6" x2="92.3737" y1="31.6699" y2="31.6699"/><text fill="#000000" font-family="sans-serif" font-size="14" font-weight="bold" lengthAdjust="spacing" textLength="73.3737" x="10" y="23.5679">Chirp Core</text></g><!--class Comment--><g id="elem_Comment"><rect codeLine="1" fill="#F1F1F1" height="143.3396" id="Comment" rx="2.5" ry="2.5" style="stroke:#181818;stroke-width:0.5;" width="286.0911" x="39.95" y="44.602"/><ellipse cx="146.1957" cy="60.602" fill="#ADD1B2" rx="11" ry="11" style="stroke:#181818;stroke-width:1;"/><path d="M145.6644,67.5239 Q143.9144,67.5239 142.7738,66.7895 Q141.6488,66.0395 141.0863,64.6957 Q140.5394,63.3364 140.5394,61.5395 Q140.5394,59.5082 141.1957,58.0551 Q141.8519,56.602 143.1332,55.8207 Q144.4144,55.0395 146.2894,55.0395 Q147.18,55.0395 147.8519,55.227 Q148.5238,55.3989 149.2113,55.7426 L148.3988,57.7582 Q147.7738,57.4457 147.2269,57.3207 Q146.6957,57.1957 146.2113,57.1957 Q145.0394,57.1957 144.3363,57.727 Q143.6332,58.2582 143.3363,59.2114 Q143.0394,60.1645 143.0394,61.4301 Q143.0394,63.4457 143.7582,64.4145 Q144.4769,65.3676 146.0707,65.3676 Q146.6644,65.3676 147.2894,65.2114 Q147.9144,65.0551 148.7425,64.6801 L148.7425,66.8989 Q148.0082,67.2114 147.2113,67.3676 Q146.43,67.5239 145.6644,67.5239 Z " fill="#000000"/><text fill="#000000" font-family="sans-serif" font-size="14" lengthAdjust="spacing" textLength="65.0997" x="166.6957" y="66.034">Comment</text><line style="stroke:#181818;stroke-width:0.5;" x1="40.95" x2="325.0411" y1="76.602" y2="76.602"/><ellipse cx="50.95" cy="91.6359" fill="none" rx="3" ry="3" style="stroke:#038048;stroke-width:1;"/><text fill="#000000" font-family="sans-serif" font-size="14" lengthAdjust="spacing" textLength="183.8053" x="59.95" y="95.5679">CommentId : int &#171;get&#187; &#171;set&#187;</text><ellipse cx="50.95" cy="110.7039" fill="none" rx="3" ry="3" style="stroke:#038048;stroke-width:1;"/><text fill="#000000" font-family="sans-serif" font-size="14" lengthAdjust="spacing" textLength="229.3192" x="59.95" y="114.6358">&#171;required&#187; Text : string &#171;get&#187; &#171;set&#187;</text><ellipse cx="50.95" cy="129.7718" fill="none" rx="3" ry="3" style="stroke:#038048;stroke-width:1;"/><text fill="#000000" font-family="sans-serif" font-size="14" lengthAdjust="spacing" textLength="260.0911" x="59.95" y="133.7038">&#171;required&#187; AuthorId : string &#171;get&#187; &#171;set&#187;</text><ellipse cx="50.95" cy="148.8397" fill="none" rx="3" ry="3" style="stroke:#038048;stroke-width:1;"/><text fill="#000000" font-family="sans-serif" font-size="14" lengthAdjust="spacing" textLength="235.3391" x="59.95" y="152.7717">&#171;required&#187; CheepId : int &#171;get&#187; &#171;set&#187;</text><ellipse cx="50.95" cy="167.9076" fill="none" rx="3" ry="3" style="stroke:#038048;stroke-width:1;"/><text fill="#000000" font-family="sans-serif" font-size="14" lengthAdjust="spacing" textLength="149.1134" x="59.95" y="171.8396">TimeStamp : DateTime</text><line style="stroke:#181818;stroke-width:0.5;" x1="40.95" x2="325.0411" y1="179.9416" y2="179.9416"/></g><!--class Author--><g id="elem_Author"><rect codeLine="1" fill="#F1F1F1" height="124.2717" id="Author" rx="2.5" ry="2.5" style="stroke:#181818;stroke-width:0.5;" width="252.2531" x="310.87" y="432.212"/><ellipse cx="409.9686" cy="448.212" fill="#ADD1B2" rx="11" ry="11" style="stroke:#181818;stroke-width:1;"/><path d="M409.4374,455.1339 Q407.6874,455.1339 406.5468,454.3995 Q405.4218,453.6495 404.8593,452.3057 Q404.3124,450.9464 404.3124,449.1495 Q404.3124,447.1182 404.9686,445.6651 Q405.6249,444.212 406.9061,443.4307 Q408.1874,442.6495 410.0624,442.6495 Q410.953,442.6495 411.6249,442.837 Q412.2968,443.0089 412.9843,443.3526 L412.1718,445.3682 Q411.5468,445.0557 410.9999,444.9307 Q410.4686,444.8057 409.9843,444.8057 Q408.8124,444.8057 408.1093,445.337 Q407.4061,445.8682 407.1093,446.8214 Q406.8124,447.7745 406.8124,449.0401 Q406.8124,451.0557 407.5311,452.0245 Q408.2499,452.9776 409.8436,452.9776 Q410.4374,452.9776 411.0624,452.8214 Q411.6874,452.6651 412.5155,452.2901 L412.5155,454.5089 Q411.7811,454.8214 410.9843,454.9776 Q410.203,455.1339 409.4374,455.1339 Z " fill="#000000"/><text fill="#000000" font-family="sans-serif" font-size="14" lengthAdjust="spacing" textLength="45.5558" x="430.4686" y="453.644">Author</text><line style="stroke:#181818;stroke-width:0.5;" x1="311.87" x2="562.1231" y1="464.212" y2="464.212"/><ellipse cx="321.87" cy="479.2459" fill="none" rx="3" ry="3" style="stroke:#038048;stroke-width:1;"/><text fill="#000000" font-family="sans-serif" font-size="14" lengthAdjust="spacing" textLength="179.8573" x="330.87" y="483.1779">ICollection&lt;Cheep&gt; Cheeps</text><ellipse cx="321.87" cy="498.3139" fill="none" rx="3" ry="3" style="stroke:#038048;stroke-width:1;"/><text fill="#000000" font-family="sans-serif" font-size="14" lengthAdjust="spacing" textLength="195.0892" x="330.87" y="502.2458">ICollection&lt;Follow&gt; Following</text><ellipse cx="321.87" cy="517.3818" fill="none" rx="3" ry="3" style="stroke:#038048;stroke-width:1;"/><text fill="#000000" font-family="sans-serif" font-size="14" lengthAdjust="spacing" textLength="194.5992" x="330.87" y="521.3138">ICollection&lt;Follow&gt; Followers</text><ellipse cx="321.87" cy="536.4497" fill="none" rx="3" ry="3" style="stroke:#038048;stroke-width:1;"/><text fill="#000000" font-family="sans-serif" font-size="14" lengthAdjust="spacing" textLength="226.2531" x="330.87" y="540.3817">ICollection&lt;Comment&gt; Comments</text><line style="stroke:#181818;stroke-width:0.5;" x1="311.87" x2="562.1231" y1="548.4836" y2="548.4836"/></g><!--class Cheep--><g id="elem_Cheep"><rect codeLine="1" fill="#F1F1F1" height="124.2717" id="Cheep" rx="2.5" ry="2.5" style="stroke:#181818;stroke-width:0.5;" width="286.0911" x="58.95" y="247.942"/><ellipse cx="176.7946" cy="263.942" fill="#ADD1B2" rx="11" ry="11" style="stroke:#181818;stroke-width:1;"/><path d="M176.2634,270.8639 Q174.5134,270.8639 173.3727,270.1295 Q172.2477,269.3795 171.6852,268.0357 Q171.1384,266.6764 171.1384,264.8795 Q171.1384,262.8482 171.7946,261.3951 Q172.4509,259.942 173.7321,259.1607 Q175.0134,258.3795 176.8884,258.3795 Q177.779,258.3795 178.4509,258.567 Q179.1227,258.7389 179.8102,259.0826 L178.9977,261.0982 Q178.3727,260.7857 177.8259,260.6607 Q177.2946,260.5357 176.8102,260.5357 Q175.6384,260.5357 174.9352,261.067 Q174.2321,261.5982 173.9352,262.5514 Q173.6384,263.5045 173.6384,264.7701 Q173.6384,266.7857 174.3571,267.7545 Q175.0759,268.7076 176.6696,268.7076 Q177.2634,268.7076 177.8884,268.5514 Q178.5134,268.3951 179.3415,268.0201 L179.3415,270.2389 Q178.6071,270.5514 177.8102,270.7076 Q177.029,270.8639 176.2634,270.8639 Z " fill="#000000"/><text fill="#000000" font-family="sans-serif" font-size="14" lengthAdjust="spacing" textLength="41.9018" x="197.2946" y="269.374">Cheep</text><line style="stroke:#181818;stroke-width:0.5;" x1="59.95" x2="344.0411" y1="279.942" y2="279.942"/><ellipse cx="69.95" cy="294.9759" fill="none" rx="3" ry="3" style="stroke:#038048;stroke-width:1;"/><text fill="#000000" font-family="sans-serif" font-size="14" lengthAdjust="spacing" textLength="160.6074" x="78.95" y="298.9079">CheepId : int &#171;get&#187; &#171;set&#187;</text><ellipse cx="69.95" cy="314.0439" fill="none" rx="3" ry="3" style="stroke:#038048;stroke-width:1;"/><text fill="#000000" font-family="sans-serif" font-size="14" lengthAdjust="spacing" textLength="229.3192" x="78.95" y="317.9758">&#171;required&#187; Text : string &#171;get&#187; &#171;set&#187;</text><ellipse cx="69.95" cy="333.1118" fill="none" rx="3" ry="3" style="stroke:#038048;stroke-width:1;"/><text fill="#000000" font-family="sans-serif" font-size="14" lengthAdjust="spacing" textLength="260.0911" x="78.95" y="337.0438">&#171;required&#187; AuthorId : string &#171;get&#187; &#171;set&#187;</text><ellipse cx="69.95" cy="352.1797" fill="none" rx="3" ry="3" style="stroke:#038048;stroke-width:1;"/><text fill="#000000" font-family="sans-serif" font-size="14" lengthAdjust="spacing" textLength="149.1134" x="78.95" y="356.1117">TimeStamp : DateTime</text><line style="stroke:#181818;stroke-width:0.5;" x1="59.95" x2="344.0411" y1="364.2136" y2="364.2136"/></g><!--class IdentityUser--><g id="elem_IdentityUser"><rect fill="#F1F1F1" height="48" id="IdentityUser" rx="2.5" ry="2.5" style="stroke:#181818;stroke-width:0.5;" width="113.3817" x="380.31" y="286.072"/><ellipse cx="395.31" cy="302.072" fill="#ADD1B2" rx="11" ry="11" style="stroke:#181818;stroke-width:1;"/><path d="M394.7788,308.9939 Q393.0288,308.9939 391.8881,308.2595 Q390.7631,307.5095 390.2006,306.1657 Q389.6538,304.8064 389.6538,303.0095 Q389.6538,300.9782 390.31,299.5251 Q390.9663,298.072 392.2475,297.2907 Q393.5288,296.5095 395.4038,296.5095 Q396.2944,296.5095 396.9663,296.697 Q397.6381,296.8689 398.3256,297.2126 L397.5131,299.2282 Q396.8881,298.9157 396.3413,298.7907 Q395.81,298.6657 395.3256,298.6657 Q394.1538,298.6657 393.4506,299.197 Q392.7475,299.7282 392.4506,300.6814 Q392.1538,301.6345 392.1538,302.9001 Q392.1538,304.9157 392.8725,305.8845 Q393.5913,306.8376 395.185,306.8376 Q395.7788,306.8376 396.4038,306.6814 Q397.0288,306.5251 397.8569,306.1501 L397.8569,308.3689 Q397.1225,308.6814 396.3256,308.8376 Q395.5444,308.9939 394.7788,308.9939 Z " fill="#000000"/><text fill="#000000" font-family="sans-serif" font-size="14" lengthAdjust="spacing" textLength="81.3817" x="409.31" y="307.504">IdentityUser</text><line style="stroke:#181818;stroke-width:0.5;" x1="381.31" x2="492.6917" y1="318.072" y2="318.072"/><line style="stroke:#181818;stroke-width:0.5;" x1="381.31" x2="492.6917" y1="326.072" y2="326.072"/></g><!--class Follow--><g id="elem_Follow"><rect codeLine="1" fill="#F1F1F1" height="86.1358" id="Follow" rx="2.5" ry="2.5" style="stroke:#181818;stroke-width:0.5;" width="230.8192" x="528.59" y="267.002"/><ellipse cx="618.5327" cy="283.002" fill="#ADD1B2" rx="11" ry="11" style="stroke:#181818;stroke-width:1;"/><path d="M618.0015,289.9239 Q616.2515,289.9239 615.1108,289.1895 Q613.9858,288.4395 613.4233,287.0957 Q612.8765,285.7364 612.8765,283.9395 Q612.8765,281.9082 613.5327,280.4551 Q614.189,279.002 615.4702,278.2207 Q616.7515,277.4395 618.6265,277.4395 Q619.5171,277.4395 620.189,277.627 Q620.8608,277.7989 621.5483,278.1426 L620.7358,280.1582 Q620.1108,279.8457 619.564,279.7207 Q619.0327,279.5957 618.5483,279.5957 Q617.3765,279.5957 616.6733,280.127 Q615.9702,280.6582 615.6733,281.6114 Q615.3765,282.5645 615.3765,283.8301 Q615.3765,285.8457 616.0952,286.8145 Q616.814,287.7676 618.4077,287.7676 Q619.0015,287.7676 619.6265,287.6114 Q620.2515,287.4551 621.0796,287.0801 L621.0796,289.2989 Q620.3452,289.6114 619.5483,289.7676 Q618.7671,289.9239 618.0015,289.9239 Z " fill="#000000"/><text fill="#000000" font-family="sans-serif" font-size="14" lengthAdjust="spacing" textLength="42.4338" x="639.0327" y="288.434">Follow</text><line style="stroke:#181818;stroke-width:0.5;" x1="529.59" x2="758.4092" y1="299.002" y2="299.002"/><ellipse cx="539.59" cy="314.0359" fill="none" rx="3" ry="3" style="stroke:#038048;stroke-width:1;"/><text fill="#000000" font-family="sans-serif" font-size="14" lengthAdjust="spacing" textLength="201.9913" x="548.59" y="317.9679">FollowerId : string? &#171;get&#187; &#171;set&#187;</text><ellipse cx="539.59" cy="333.1039" fill="none" rx="3" ry="3" style="stroke:#038048;stroke-width:1;"/><text fill="#000000" font-family="sans-serif" font-size="14" lengthAdjust="spacing" textLength="204.8192" x="548.59" y="337.0358">FollowedId : string? &#171;get&#187; &#171;set&#187;</text><line style="stroke:#181818;stroke-width:0.5;" x1="529.59" x2="758.4092" y1="345.1378" y2="345.1378"/></g><!--link Comment to Author--><g id="link_Comment_Author"><path codeLine="8" d="M83.76,188.152 C66.38,205.572 50.76,225.692 41,247.942 C18.81,298.512 8.15,327.812 41,372.212 C73.52,416.172 201.3478,449.4787 304.4978,470.2287 " fill="none" id="Comment-to-Author" style="stroke:#181818;stroke-width:1;"/><polygon fill="#181818" points="310.38,471.412,302.3456,465.7156,305.4782,470.4259,300.7679,473.5585,310.38,471.412" style="stroke:#181818;stroke-width:1;"/><text fill="#000000" font-family="sans-serif" font-size="13" lengthAdjust="spacing" textLength="42.302" x="260.7763" y="466.7063">Author</text></g><!--link Comment to Cheep--><g id="link_Comment_Cheep"><path codeLine="9" d="M190.05,188.422 C191.97,207.822 193.4502,222.701 195.3102,241.531 " fill="none" id="Comment-to-Cheep" style="stroke:#181818;stroke-width:1;"/><polygon fill="#181818" points="195.9,247.502,198.9959,238.1524,195.4085,242.5262,191.0347,238.9388,195.9,247.502" style="stroke:#181818;stroke-width:1;"/><text fill="#000000" font-family="sans-serif" font-size="13" lengthAdjust="spacing" textLength="38.909" x="155.0509" y="236.2217">Cheep</text></g><!--reverse link IdentityUser to Author--><g id="link_IdentityUser_Author"><path codeLine="7" d="M437,352.532 C437,377.052 437,398.542 437,432.002 " fill="none" id="IdentityUser-backto-Author" style="stroke:#181818;stroke-width:1;"/><polygon fill="none" points="437,334.532,431,352.532,443,352.532,437,334.532" style="stroke:#181818;stroke-width:1;"/></g><!--link Follow to Author--><g id="link_Follow_Author"><path codeLine="5" d="M584.43,353.582 C556.09,376.832 526.9331,401.9878 498.8831,427.6978 " fill="none" id="Follow-to-Author" style="stroke:#181818;stroke-width:1;"/><polygon fill="#181818" points="494.46,431.752,503.7974,428.6195,498.1459,428.3735,498.3919,422.722,494.46,431.752" style="stroke:#181818;stroke-width:1;"/><text fill="#000000" font-family="sans-serif" font-size="13" lengthAdjust="spacing" textLength="52.104" x="446.104" y="420.4694">Follower</text></g><!--link Follow to Author--><g id="link_Follow_Author"><path codeLine="6" d="M607.27,353.352 C582.71,376.692 554.2779,402.2335 523.7779,428.0735 " fill="none" id="Follow-to-Author-1" style="stroke:#181818;stroke-width:1;"/><polygon fill="#181818" points="519.2,431.952,528.6525,429.1862,523.0149,428.7199,523.4812,423.0823,519.2,431.952" style="stroke:#181818;stroke-width:1;"/><text fill="#000000" font-family="sans-serif" font-size="13" lengthAdjust="spacing" textLength="54.73" x="532.5537" y="420.2516">Followed</text></g><!--link Cheep to Author--><g id="link_Cheep_Author"><path codeLine="7" d="M281.23,372.532 C305.88,391.652 328.32,409.0434 352.97,428.1734 " fill="none" id="Cheep-to-Author" style="stroke:#181818;stroke-width:1;"/><polygon fill="#181818" points="357.71,431.852,353.0523,423.1741,353.76,428.7865,348.1475,429.4941,357.71,431.852" style="stroke:#181818;stroke-width:1;"/><text fill="#000000" font-family="sans-serif" font-size="13" lengthAdjust="spacing" textLength="42.302" x="304.1318" y="420.5809">Author</text></g><!--SRC=[hO-z3e8m64LtdmAPJUk8WqDJV-BYfEujVaArz6lwep76TnSSZ8iAaVcStDnZHNuI1IGfBvMp2KS7QN8R39N9TTn3GgXtENr2qa3AjV0UFELOLM02iR7IBNGMGuckhRr0hV7IrkObWFqbeppI6SXOK0DXGiPlZ2mrIg6tNfd2a-AV9LOVggI-him1E- -GzNpJ46RjQ0VEApJJSmrUgom4fsGCu3jjPxtLPZtLPfzgio-rzmS0]--></g></svg>