<svg xmlns="http://www.w3.org/2000/svg" xmlns:xlink="http://www.w3.org/1999/xlink" contentStyleType="text/css" height="1575px" preserveAspectRatio="none" style="width:2181px;height:1575px;background:#FFFFFF;" version="1.1" viewBox="0 0 2181 1575" width="2181px" zoomAndPan="magnify"><title>Unauthorized User To Root Sequence Diagram</title><defs/><g><text fill="#000000" font-family="sans-serif" font-size="14" font-weight="bold" lengthAdjust="spacing" textLength="322.6848" x="926.6167" y="29.9659">Unauthorized User To Root Sequence Diagram</text><rect fill="#F5F5F5" height="1523.3765" style="stroke:#181818;stroke-width:0.5;" width="126.4536" x="180.0361" y="46.0679"/><text fill="#000000" font-family="sans-serif" font-size="13" font-weight="bold" lengthAdjust="spacing" textLength="60.099" x="213.2134" y="59.9649">http calls</text><rect fill="#F5F5F5" height="1523.3765" style="stroke:#181818;stroke-width:0.5;" width="112.4181" x="356.2551" y="46.0679"/><text fill="#000000" font-family="sans-serif" font-size="13" font-weight="bold" lengthAdjust="spacing" textLength="106.4181" x="359.2551" y="59.9649">http and c# calls</text><rect fill="#F5F5F5" height="1523.3765" style="stroke:#181818;stroke-width:0.5;" width="1320.2872" x="560.3176" y="46.0679"/><text fill="#000000" font-family="sans-serif" font-size="13" font-weight="bold" lengthAdjust="spacing" textLength="47.2551" x="1196.8337" y="59.9649">c# calls</text><rect fill="#F5F5F5" height="1523.3765" style="stroke:#181818;stroke-width:0.5;" width="120.2036" x="1938.2484" y="46.0679"/><text fill="#000000" font-family="sans-serif" font-size="13" font-weight="bold" lengthAdjust="spacing" textLength="103.1811" x="1946.7596" y="59.9649">c# and SQL calls</text><rect fill="#F5F5F5" height="1523.3765" style="stroke:#181818;stroke-width:0.5;" width="76.0478" x="2099.8704" y="46.0679"/><text fill="#000000" font-family="sans-serif" font-size="13" font-weight="bold" lengthAdjust="spacing" textLength="56.8621" x="2109.4633" y="59.9649">SQL calls</text><rect fill="none" height="172.5301" style="stroke:#000000;stroke-width:1.5;" width="462.9079" x="1167.3632" y="1133.3163"/><line style="stroke:#181818;stroke-width:0.5;stroke-dasharray:5.0,5.0;" x1="70" x2="70" y1="132.8419" y2="1487.3765"/><line style="stroke:#181818;stroke-width:0.5;stroke-dasharray:5.0,5.0;" x1="243.0361" x2="243.0361" y1="132.8419" y2="1487.3765"/><line style="stroke:#181818;stroke-width:0.5;stroke-dasharray:5.0,5.0;" x1="412.3872" x2="412.3872" y1="132.8419" y2="1487.3765"/><line style="stroke:#181818;stroke-width:0.5;stroke-dasharray:5.0,5.0;" x1="605.3176" x2="605.3176" y1="132.8419" y2="1487.3765"/><line style="stroke:#181818;stroke-width:0.5;stroke-dasharray:5.0,5.0;" x1="740.5876" x2="740.5876" y1="132.8419" y2="1487.3765"/><line style="stroke:#181818;stroke-width:0.5;stroke-dasharray:5.0,5.0;" x1="990.41" x2="990.41" y1="132.8419" y2="1487.3765"/><line style="stroke:#181818;stroke-width:0.5;stroke-dasharray:5.0,5.0;" x1="1105.9677" x2="1105.9677" y1="132.8419" y2="1487.3765"/><line style="stroke:#181818;stroke-width:0.5;stroke-dasharray:5.0,5.0;" x1="1237.3632" x2="1237.3632" y1="132.8419" y2="1487.3765"/><line style="stroke:#181818;stroke-width:0.5;stroke-dasharray:5.0,5.0;" x1="1413.4573" x2="1413.4573" y1="132.8419" y2="1487.3765"/><line style="stroke:#181818;stroke-width:0.5;stroke-dasharray:5.0,5.0;" x1="1576.7654" x2="1576.7654" y1="132.8419" y2="1487.3765"/><line style="stroke:#181818;stroke-width:0.5;stroke-dasharray:5.0,5.0;" x1="1677.2711" x2="1677.2711" y1="132.8419" y2="1487.3765"/><line style="stroke:#181818;stroke-width:0.5;stroke-dasharray:5.0,5.0;" x1="1817.2553" x2="1817.2553" y1="132.8419" y2="1487.3765"/><line style="stroke:#181818;stroke-width:0.5;stroke-dasharray:5.0,5.0;" x1="1998.2484" x2="1998.2484" y1="132.8419" y2="1487.3765"/><line style="stroke:#181818;stroke-width:0.5;stroke-dasharray:5.0,5.0;" x1="2137.8704" x2="2137.8704" y1="132.8419" y2="1487.3765"/><text fill="#000000" font-family="sans-serif" font-size="14" lengthAdjust="spacing" textLength="124.3055" x="5" y="128.7399">Unauthorized User</text><ellipse cx="70.1528" cy="62.2739" fill="#E2E2F0" rx="8" ry="8" style="stroke:#181818;stroke-width:0.5;"/><path d="M70.1528,70.2739 L70.1528,97.2739 M57.1528,78.2739 L83.1528,78.2739 M70.1528,97.2739 L57.1528,112.2739 M70.1528,97.2739 L83.1528,112.2739 " fill="none" style="stroke:#181818;stroke-width:0.5;"/><text fill="#000000" font-family="sans-serif" font-size="14" lengthAdjust="spacing" textLength="124.3055" x="5" y="1501.3424">Unauthorized User</text><ellipse cx="70.1528" cy="1513.9444" fill="#E2E2F0" rx="8" ry="8" style="stroke:#181818;stroke-width:0.5;"/><path d="M70.1528,1521.9444 L70.1528,1548.9444 M57.1528,1529.9444 L83.1528,1529.9444 M70.1528,1548.9444 L57.1528,1563.9444 M70.1528,1548.9444 L83.1528,1563.9444 " fill="none" style="stroke:#181818;stroke-width:0.5;"/><rect fill="#E2E2F0" height="33.0679" rx="2.5" ry="2.5" style="stroke:#181818;stroke-width:0.5;" width="118.4536" x="184.0361" y="98.7739"/><text fill="#000000" font-family="sans-serif" font-size="14" lengthAdjust="spacing" textLength="104.4536" x="191.0361" y="120.7399">Client (Browser)</text><rect fill="#E2E2F0" height="33.0679" rx="2.5" ry="2.5" style="stroke:#181818;stroke-width:0.5;" width="118.4536" x="184.0361" y="1486.3765"/><text fill="#000000" font-family="sans-serif" font-size="14" lengthAdjust="spacing" textLength="104.4536" x="191.0361" y="1508.3424">Client (Browser)</text><rect fill="#E2E2F0" height="33.0679" rx="2.5" ry="2.5" style="stroke:#181818;stroke-width:0.5;" width="56.1538" x="384.3872" y="98.7739"/><text fill="#000000" font-family="sans-serif" font-size="14" lengthAdjust="spacing" textLength="42.1538" x="391.3872" y="120.7399">Server</text><rect fill="#E2E2F0" height="33.0679" rx="2.5" ry="2.5" style="stroke:#181818;stroke-width:0.5;" width="56.1538" x="384.3872" y="1486.3765"/><text fill="#000000" font-family="sans-serif" font-size="14" lengthAdjust="spacing" textLength="42.1538" x="391.3872" y="1508.3424">Server</text><text fill="#000000" font-family="sans-serif" font-size="14" lengthAdjust="spacing" textLength="76.1457" x="564.3176" y="128.7399">Public Page</text><path d="M584.8904,85.7739 L584.8904,109.7739 M584.8904,97.7739 L601.8904,97.7739 " fill="none" style="stroke:#181818;stroke-width:0.5;"/><ellipse cx="613.8904" cy="97.7739" fill="#E2E2F0" rx="12" ry="12" style="stroke:#181818;stroke-width:0.5;"/><text fill="#000000" font-family="sans-serif" font-size="14" lengthAdjust="spacing" textLength="76.1457" x="564.3176" y="1501.3424">Public Page</text><path d="M584.8904,1509.4444 L584.8904,1533.4444 M584.8904,1521.4444 L601.8904,1521.4444 " fill="none" style="stroke:#181818;stroke-width:0.5;"/><ellipse cx="613.8904" cy="1521.4444" fill="#E2E2F0" rx="12" ry="12" style="stroke:#181818;stroke-width:0.5;"/><text fill="#000000" font-family="sans-serif" font-size="14" lengthAdjust="spacing" textLength="46.9978" x="714.5876" y="128.7399">_layout</text><path d="M720.5866,85.7739 L720.5866,109.7739 M720.5866,97.7739 L737.5866,97.7739 " fill="none" style="stroke:#181818;stroke-width:0.5;"/><ellipse cx="749.5866" cy="97.7739" fill="#E2E2F0" rx="12" ry="12" style="stroke:#181818;stroke-width:0.5;"/><text fill="#000000" font-family="sans-serif" font-size="14" lengthAdjust="spacing" textLength="46.9978" x="714.5876" y="1501.3424">_layout</text><path d="M720.5866,1509.4444 L720.5866,1533.4444 M720.5866,1521.4444 L737.5866,1521.4444 " fill="none" style="stroke:#181818;stroke-width:0.5;"/><ellipse cx="749.5866" cy="1521.4444" fill="#E2E2F0" rx="12" ry="12" style="stroke:#181818;stroke-width:0.5;"/><text fill="#000000" font-family="sans-serif" font-size="14" lengthAdjust="spacing" textLength="82.5577" x="946.41" y="128.7399">Login Partial</text><path d="M970.1888,85.7739 L970.1888,109.7739 M970.1888,97.7739 L987.1888,97.7739 " fill="none" style="stroke:#181818;stroke-width:0.5;"/><ellipse cx="999.1888" cy="97.7739" fill="#E2E2F0" rx="12" ry="12" style="stroke:#181818;stroke-width:0.5;"/><text fill="#000000" font-family="sans-serif" font-size="14" lengthAdjust="spacing" textLength="82.5577" x="946.41" y="1501.3424">Login Partial</text><path d="M970.1888,1509.4444 L970.1888,1533.4444 M970.1888,1521.4444 L987.1888,1521.4444 " fill="none" style="stroke:#181818;stroke-width:0.5;"/><ellipse cx="999.1888" cy="1521.4444" fill="#E2E2F0" rx="12" ry="12" style="stroke:#181818;stroke-width:0.5;"/><text fill="#000000" font-family="sans-serif" font-size="14" lengthAdjust="spacing" textLength="116.3956" x="1044.9677" y="128.7399">Cheep Box Partial</text><path d="M1085.6654,85.7739 L1085.6654,109.7739 M1085.6654,97.7739 L1102.6654,97.7739 " fill="none" style="stroke:#181818;stroke-width:0.5;"/><ellipse cx="1114.6654" cy="97.7739" fill="#E2E2F0" rx="12" ry="12" style="stroke:#181818;stroke-width:0.5;"/><text fill="#000000" font-family="sans-serif" font-size="14" lengthAdjust="spacing" textLength="116.3956" x="1044.9677" y="1501.3424">Cheep Box Partial</text><path d="M1085.6654,1509.4444 L1085.6654,1533.4444 M1085.6654,1521.4444 L1102.6654,1521.4444 " fill="none" style="stroke:#181818;stroke-width:0.5;"/><ellipse cx="1114.6654" cy="1521.4444" fill="#E2E2F0" rx="12" ry="12" style="stroke:#181818;stroke-width:0.5;"/><text fill="#000000" font-family="sans-serif" font-size="14" lengthAdjust="spacing" textLength="114.1276" x="1177.3632" y="128.7399">Cheep List Partial</text><path d="M1216.927,85.7739 L1216.927,109.7739 M1216.927,97.7739 L1233.927,97.7739 " fill="none" style="stroke:#181818;stroke-width:0.5;"/><ellipse cx="1245.927" cy="97.7739" fill="#E2E2F0" rx="12" ry="12" style="stroke:#181818;stroke-width:0.5;"/><text fill="#000000" font-family="sans-serif" font-size="14" lengthAdjust="spacing" textLength="114.1276" x="1177.3632" y="1501.3424">Cheep List Partial</text><path d="M1216.927,1509.4444 L1216.927,1533.4444 M1216.927,1521.4444 L1233.927,1521.4444 " fill="none" style="stroke:#181818;stroke-width:0.5;"/><ellipse cx="1245.927" cy="1521.4444" fill="#E2E2F0" rx="12" ry="12" style="stroke:#181818;stroke-width:0.5;"/><text fill="#000000" font-family="sans-serif" font-size="14" lengthAdjust="spacing" textLength="84.6017" x="1368.4573" y="128.7399">Public Model</text><ellipse cx="1413.7581" cy="97.7739" fill="#E2E2F0" rx="12" ry="12" style="stroke:#181818;stroke-width:0.5;"/><polygon fill="#181818" points="1409.7581,85.7739,1415.7581,80.7739,1413.7581,85.7739,1415.7581,90.7739,1409.7581,85.7739" style="stroke:#181818;stroke-width:1;"/><text fill="#000000" font-family="sans-serif" font-size="14" lengthAdjust="spacing" textLength="84.6017" x="1368.4573" y="1501.3424">Public Model</text><ellipse cx="1413.7581" cy="1521.4444" fill="#E2E2F0" rx="12" ry="12" style="stroke:#181818;stroke-width:0.5;"/><polygon fill="#181818" points="1409.7581,1509.4444,1415.7581,1504.4444,1413.7581,1509.4444,1415.7581,1514.4444,1409.7581,1509.4444" style="stroke:#181818;stroke-width:1;"/><text fill="#000000" font-family="sans-serif" font-size="14" lengthAdjust="spacing" textLength="79.5057" x="1534.7654" y="128.7399">ASP Identity</text><ellipse cx="1577.5183" cy="97.7739" fill="#E2E2F0" rx="12" ry="12" style="stroke:#181818;stroke-width:0.5;"/><line style="stroke:#181818;stroke-width:0.5;" x1="1565.5183" x2="1589.5183" y1="111.7739" y2="111.7739"/><text fill="#000000" font-family="sans-serif" font-size="14" lengthAdjust="spacing" textLength="79.5057" x="1534.7654" y="1501.3424">ASP Identity</text><ellipse cx="1577.5183" cy="1521.4444" fill="#E2E2F0" rx="12" ry="12" style="stroke:#181818;stroke-width:0.5;"/><line style="stroke:#181818;stroke-width:0.5;" x1="1565.5183" x2="1589.5183" y1="1535.4444" y2="1535.4444"/><text fill="#000000" font-family="sans-serif" font-size="14" lengthAdjust="spacing" textLength="88.6056" x="1630.2711" y="128.7399">CheepService</text><ellipse cx="1677.574" cy="97.7739" fill="#E2E2F0" rx="12" ry="12" style="stroke:#181818;stroke-width:0.5;"/><polygon fill="#181818" points="1673.574,85.7739,1679.574,80.7739,1677.574,85.7739,1679.574,90.7739,1673.574,85.7739" style="stroke:#181818;stroke-width:1;"/><text fill="#000000" font-family="sans-serif" font-size="14" lengthAdjust="spacing" textLength="88.6056" x="1630.2711" y="1501.3424">CheepService</text><ellipse cx="1677.574" cy="1521.4444" fill="#E2E2F0" rx="12" ry="12" style="stroke:#181818;stroke-width:0.5;"/><polygon fill="#181818" points="1673.574,1509.4444,1679.574,1504.4444,1677.574,1509.4444,1679.574,1514.4444,1673.574,1509.4444" style="stroke:#181818;stroke-width:1;"/><text fill="#000000" font-family="sans-serif" font-size="14" lengthAdjust="spacing" textLength="112.3496" x="1758.2553" y="128.7399">CheepRepository</text><ellipse cx="1817.43" cy="97.7739" fill="#E2E2F0" rx="12" ry="12" style="stroke:#181818;stroke-width:0.5;"/><line style="stroke:#181818;stroke-width:0.5;" x1="1805.43" x2="1829.43" y1="111.7739" y2="111.7739"/><text fill="#000000" font-family="sans-serif" font-size="14" lengthAdjust="spacing" textLength="112.3496" x="1758.2553" y="1501.3424">CheepRepository</text><ellipse cx="1817.43" cy="1521.4444" fill="#E2E2F0" rx="12" ry="12" style="stroke:#181818;stroke-width:0.5;"/><line style="stroke:#181818;stroke-width:0.5;" x1="1805.43" x2="1829.43" y1="1535.4444" y2="1535.4444"/><text fill="#000000" font-family="sans-serif" font-size="14" lengthAdjust="spacing" textLength="106.2036" x="1942.2484" y="128.7399">ChirpDBContext</text><ellipse cx="1998.3502" cy="97.7739" fill="#E2E2F0" rx="12" ry="12" style="stroke:#181818;stroke-width:0.5;"/><line style="stroke:#181818;stroke-width:0.5;" x1="1986.3502" x2="2010.3502" y1="111.7739" y2="111.7739"/><text fill="#000000" font-family="sans-serif" font-size="14" lengthAdjust="spacing" textLength="106.2036" x="1942.2484" y="1501.3424">ChirpDBContext</text><ellipse cx="1998.3502" cy="1521.4444" fill="#E2E2F0" rx="12" ry="12" style="stroke:#181818;stroke-width:0.5;"/><line style="stroke:#181818;stroke-width:0.5;" x1="1986.3502" x2="2010.3502" y1="1535.4444" y2="1535.4444"/><text fill="#000000" font-family="sans-serif" font-size="14" lengthAdjust="spacing" textLength="62.0478" x="2103.8704" y="128.7399">Database</text><path d="M2119.8943,77.7739 C2119.8943,67.7739 2137.8943,67.7739 2137.8943,67.7739 C2137.8943,67.7739 2155.8943,67.7739 2155.8943,77.7739 L2155.8943,103.7739 C2155.8943,113.7739 2137.8943,113.7739 2137.8943,113.7739 C2137.8943,113.7739 2119.8943,113.7739 2119.8943,103.7739 L2119.8943,77.7739 " fill="#E2E2F0" style="stroke:#181818;stroke-width:1.5;"/><path d="M2119.8943,77.7739 C2119.8943,87.7739 2137.8943,87.7739 2137.8943,87.7739 C2137.8943,87.7739 2155.8943,87.7739 2155.8943,77.7739 " fill="none" style="stroke:#181818;stroke-width:1.5;"/><text fill="#000000" font-family="sans-serif" font-size="14" lengthAdjust="spacing" textLength="62.0478" x="2103.8704" y="1501.3424">Database</text><path d="M2119.8943,1515.4444 C2119.8943,1505.4444 2137.8943,1505.4444 2137.8943,1505.4444 C2137.8943,1505.4444 2155.8943,1505.4444 2155.8943,1515.4444 L2155.8943,1541.4444 C2155.8943,1551.4444 2137.8943,1551.4444 2137.8943,1551.4444 C2137.8943,1551.4444 2119.8943,1551.4444 2119.8943,1541.4444 L2119.8943,1515.4444 " fill="#E2E2F0" style="stroke:#181818;stroke-width:1.5;"/><path d="M2119.8943,1515.4444 C2119.8943,1525.4444 2137.8943,1525.4444 2137.8943,1525.4444 C2137.8943,1525.4444 2155.8943,1525.4444 2155.8943,1515.4444 " fill="none" style="stroke:#181818;stroke-width:1.5;"/><polygon fill="#181818" points="231.2629,162.5479,241.2629,166.5479,231.2629,170.5479,235.2629,166.5479" style="stroke:#181818;stroke-width:1;"/><line style="stroke:#181818;stroke-width:1;" x1="70.1528" x2="237.2629" y1="166.5479" y2="166.5479"/><text fill="#000000" font-family="sans-serif" font-size="13" lengthAdjust="spacing" textLength="149.1101" x="77.1528" y="160.7389">goes to chirp homepage</text><polygon fill="#181818" points="400.4641,194.2539,410.4641,198.2539,400.4641,202.2539,404.4641,198.2539" style="stroke:#181818;stroke-width:1;"/><line style="stroke:#181818;stroke-width:1;" x1="243.2629" x2="406.4641" y1="198.2539" y2="198.2539"/><text fill="#000000" font-family="sans-serif" font-size="13" lengthAdjust="spacing" textLength="121.0691" x="250.2629" y="192.4449">HTTPS get request /</text><path d="M417,211.2539 L417,238.2539 L729,238.2539 L729,221.2539 L719,211.2539 L417,211.2539 " fill="#FEFFDD" style="stroke:#181818;stroke-width:0.5;"/><path d="M719,211.2539 L719,221.2539 L729,221.2539 L719,211.2539 " fill="#FEFFDD" style="stroke:#181818;stroke-width:0.5;"/><text fill="#000000" font-family="sans-serif" font-size="13" lengthAdjust="spacing" textLength="291.4082" x="423" y="230.1509">Page router knows "/" is mapped to public page</text><polygon fill="#181818" points="593.3904,263.6659,603.3904,267.6659,593.3904,271.6659,597.3904,267.6659" style="stroke:#181818;stroke-width:1;"/><line style="stroke:#181818;stroke-width:1;" x1="412.4641" x2="599.3904" y1="267.6659" y2="267.6659"/><text fill="#000000" font-family="sans-serif" font-size="13" lengthAdjust="spacing" textLength="94.3671" x="419.4641" y="261.8569">get public page</text><polygon fill="#181818" points="1401.7581,295.3719,1411.7581,299.3719,1401.7581,303.3719,1405.7581,299.3719" style="stroke:#181818;stroke-width:1;"/><line style="stroke:#181818;stroke-width:1;" x1="605.3904" x2="1407.7581" y1="299.3719" y2="299.3719"/><text fill="#000000" font-family="sans-serif" font-size="13" lengthAdjust="spacing" textLength="100.4901" x="612.3904" y="293.5629">OnGet triggered</text><line style="stroke:#181818;stroke-width:1;" x1="1413.7581" x2="1455.7581" y1="331.0779" y2="331.0779"/><line style="stroke:#181818;stroke-width:1;" x1="1455.7581" x2="1455.7581" y1="331.0779" y2="344.0779"/><line style="stroke:#181818;stroke-width:1;" x1="1414.7581" x2="1455.7581" y1="344.0779" y2="344.0779"/><polygon fill="#181818" points="1424.7581,340.0779,1414.7581,344.0779,1424.7581,348.0779,1420.7581,344.0779" style="stroke:#181818;stroke-width:1;"/><text fill="#000000" font-family="sans-serif" font-size="13" lengthAdjust="spacing" textLength="149.7601" x="1420.7581" y="325.2689">paginate cheeps(page 0)</text><polygon fill="#181818" points="1665.574,371.784,1675.574,375.784,1665.574,379.784,1669.574,375.784" style="stroke:#181818;stroke-width:1;"/><line style="stroke:#181818;stroke-width:1;" x1="1413.7581" x2="1671.574" y1="375.784" y2="375.784"/><text fill="#000000" font-family="sans-serif" font-size="13" lengthAdjust="spacing" textLength="115.8561" x="1420.7581" y="369.975">GetCheeps(page 0)</text><polygon fill="#181818" points="1805.43,403.49,1815.43,407.49,1805.43,411.49,1809.43,407.49" style="stroke:#181818;stroke-width:1;"/><line style="stroke:#181818;stroke-width:1;" x1="1677.574" x2="1811.43" y1="407.49" y2="407.49"/><text fill="#000000" font-family="sans-serif" font-size="13" lengthAdjust="spacing" textLength="115.8561" x="1684.574" y="401.681">GetCheeps(page 0)</text><polygon fill="#181818" points="1986.3502,435.196,1996.3502,439.196,1986.3502,443.196,1990.3502,439.196" style="stroke:#181818;stroke-width:1;"/><line style="stroke:#181818;stroke-width:1;" x1="1817.43" x2="1992.3502" y1="439.196" y2="439.196"/><text fill="#000000" font-family="sans-serif" font-size="13" lengthAdjust="spacing" textLength="136.5781" x="1824.43" y="433.387">Query Cheeps [efcore]</text><polygon fill="#181818" points="2125.8943,466.902,2135.8943,470.902,2125.8943,474.902,2129.8943,470.902" style="stroke:#181818;stroke-width:1;"/><line style="stroke:#181818;stroke-width:1;" x1="1998.3502" x2="2131.8943" y1="470.902" y2="470.902"/><text fill="#000000" font-family="sans-serif" font-size="13" lengthAdjust="spacing" textLength="115.5441" x="2005.3502" y="465.093">Query Cheeps [sql]</text><polygon fill="#181818" points="2009.3502,498.608,1999.3502,502.608,2009.3502,506.608,2005.3502,502.608" style="stroke:#181818;stroke-width:1;"/><line style="stroke:#181818;stroke-width:1;" x1="2003.3502" x2="2136.8943" y1="502.608" y2="502.608"/><text fill="#000000" font-family="sans-serif" font-size="13" lengthAdjust="spacing" textLength="87.3471" x="2015.3502" y="496.799">return Cheeps</text><polygon fill="#181818" points="1828.43,530.314,1818.43,534.314,1828.43,538.314,1824.43,534.314" style="stroke:#181818;stroke-width:1;"/><line style="stroke:#181818;stroke-width:1;" x1="1822.43" x2="1997.3502" y1="534.314" y2="534.314"/><text fill="#000000" font-family="sans-serif" font-size="13" lengthAdjust="spacing" textLength="87.3471" x="1834.43" y="528.505">return Cheeps</text><line style="stroke:#181818;stroke-width:1;" x1="1817.43" x2="1859.43" y1="566.0201" y2="566.0201"/><line style="stroke:#181818;stroke-width:1;" x1="1859.43" x2="1859.43" y1="566.0201" y2="579.0201"/><line style="stroke:#181818;stroke-width:1;" x1="1818.43" x2="1859.43" y1="579.0201" y2="579.0201"/><polygon fill="#181818" points="1828.43,575.0201,1818.43,579.0201,1828.43,583.0201,1824.43,579.0201" style="stroke:#181818;stroke-width:1;"/><text fill="#000000" font-family="sans-serif" font-size="13" lengthAdjust="spacing" textLength="166.9202" x="1824.43" y="560.2111">Map Cheeps to CheepDTOs</text><polygon fill="#181818" points="1688.574,606.7261,1678.574,610.7261,1688.574,614.7261,1684.574,610.7261" style="stroke:#181818;stroke-width:1;"/><line style="stroke:#181818;stroke-width:1;" x1="1682.574" x2="1816.43" y1="610.7261" y2="610.7261"/><text fill="#000000" font-family="sans-serif" font-size="13" lengthAdjust="spacing" textLength="114.2181" x="1694.574" y="604.9171">return CheepDTOs</text><polygon fill="#181818" points="1424.7581,638.4321,1414.7581,642.4321,1424.7581,646.4321,1420.7581,642.4321" style="stroke:#181818;stroke-width:1;"/><line style="stroke:#181818;stroke-width:1;" x1="1418.7581" x2="1676.574" y1="642.4321" y2="642.4321"/><text fill="#000000" font-family="sans-serif" font-size="13" lengthAdjust="spacing" textLength="114.2181" x="1430.7581" y="636.6231">return CheepDTOs</text><path d="M1418,655.4321 L1418,682.4321 L1584,682.4321 L1584,665.4321 L1574,655.4321 L1418,655.4321 " fill="#FEFFDD" style="stroke:#181818;stroke-width:0.5;"/><path d="M1574,655.4321 L1574,665.4321 L1584,665.4321 L1574,655.4321 " fill="#FEFFDD" style="stroke:#181818;stroke-width:0.5;"/><text fill="#000000" font-family="sans-serif" font-size="13" lengthAdjust="spacing" textLength="145.7821" x="1424" y="674.3291">DTOs are stored in a list</text><polygon fill="#181818" points="729.0866,707.8441,739.0866,711.8441,729.0866,715.8441,733.0866,711.8441" style="stroke:#181818;stroke-width:1;"/><line style="stroke:#181818;stroke-width:1;" x1="605.3904" x2="735.0866" y1="711.8441" y2="711.8441"/><text fill="#000000" font-family="sans-serif" font-size="13" lengthAdjust="spacing" textLength="61.2691" x="612.3904" y="706.0351">get layout</text><polygon fill="#181818" points="978.6888,739.5501,988.6888,743.5501,978.6888,747.5501,982.6888,743.5501" style="stroke:#181818;stroke-width:1;"/><line style="stroke:#181818;stroke-width:1;" x1="741.0866" x2="984.6888" y1="743.5501" y2="743.5501"/><text fill="#000000" font-family="sans-serif" font-size="13" lengthAdjust="spacing" textLength="96.7331" x="748.0866" y="737.7411">get login partial</text><path d="M995,756.5501 L995,783.5501 L1419,783.5501 L1419,766.5501 L1409,756.5501 L995,756.5501 " fill="#FEFFDD" style="stroke:#181818;stroke-width:0.5;"/><path d="M1409,756.5501 L1409,766.5501 L1419,766.5501 L1409,756.5501 " fill="#FEFFDD" style="stroke:#181818;stroke-width:0.5;"/><text fill="#000000" font-family="sans-serif" font-size="13" lengthAdjust="spacing" textLength="403.0913" x="1001" y="775.4472">Checking for authentication status using SignInManager and User</text><polygon fill="#181818" points="1565.5183,808.9622,1575.5183,812.9622,1565.5183,816.9622,1569.5183,812.9622" style="stroke:#181818;stroke-width:1;"/><line style="stroke:#181818;stroke-width:1;" x1="990.6888" x2="1571.5183" y1="812.9622" y2="812.9622"/><text fill="#000000" font-family="sans-serif" font-size="13" lengthAdjust="spacing" textLength="148.2001" x="997.6888" y="807.1532">check for authentication</text><polygon fill="#181818" points="1001.6888,840.6682,991.6888,844.6682,1001.6888,848.6682,997.6888,844.6682" style="stroke:#181818;stroke-width:1;"/><line style="stroke:#181818;stroke-width:1;" x1="995.6888" x2="1576.5183" y1="844.6682" y2="844.6682"/><text fill="#000000" font-family="sans-serif" font-size="13" lengthAdjust="spacing" textLength="170.1052" x="1007.6888" y="838.8592">authentication status [false]</text><polygon fill="#181818" points="752.0866,872.3742,742.0866,876.3742,752.0866,880.3742,748.0866,876.3742" style="stroke:#181818;stroke-width:1;"/><line style="stroke:#181818;stroke-width:1;" x1="746.0866" x2="989.6888" y1="876.3742" y2="876.3742"/><text fill="#000000" font-family="sans-serif" font-size="13" lengthAdjust="spacing" textLength="225.6022" x="758.0866" y="870.5652">return login partial html [logged out]</text><polygon fill="#181818" points="616.3904,904.0802,606.3904,908.0802,616.3904,912.0802,612.3904,908.0802" style="stroke:#181818;stroke-width:1;"/><line style="stroke:#181818;stroke-width:1;" x1="610.3904" x2="740.0866" y1="908.0802" y2="908.0802"/><text fill="#000000" font-family="sans-serif" font-size="13" lengthAdjust="spacing" textLength="111.6961" x="622.3904" y="902.2712">return layout html</text><polygon fill="#181818" points="1565.5183,935.7862,1575.5183,939.7862,1565.5183,943.7862,1569.5183,939.7862" style="stroke:#181818;stroke-width:1;"/><line style="stroke:#181818;stroke-width:1;" x1="605.3904" x2="1571.5183" y1="939.7862" y2="939.7862"/><text fill="#000000" font-family="sans-serif" font-size="13" lengthAdjust="spacing" textLength="148.2001" x="612.3904" y="933.9772">check for authentication</text><polygon fill="#181818" points="616.3904,967.4923,606.3904,971.4923,616.3904,975.4923,612.3904,971.4923" style="stroke:#181818;stroke-width:1;"/><line style="stroke:#181818;stroke-width:1;" x1="610.3904" x2="1576.5183" y1="971.4923" y2="971.4923"/><text fill="#000000" font-family="sans-serif" font-size="13" lengthAdjust="spacing" textLength="170.1052" x="622.3904" y="965.6833">authentication status [false]</text><path d="M610,984.4923 L610,1011.4923 L998,1011.4923 L998,994.4923 L988,984.4923 L610,984.4923 " fill="#FEFFDD" style="stroke:#181818;stroke-width:0.5;"/><path d="M988,984.4923 L988,994.4923 L998,994.4923 L988,984.4923 " fill="#FEFFDD" style="stroke:#181818;stroke-width:0.5;"/><text fill="#000000" font-family="sans-serif" font-size="13" lengthAdjust="spacing" textLength="367.6662" x="616" y="1003.3893">User is not logged in so we don't show the cheep box partial</text><line style="stroke:#181818;stroke-width:2;" x1="1088.1654" x2="1098.1654" y1="1018.1983" y2="1028.1983"/><line style="stroke:#181818;stroke-width:2;" x1="1088.1654" x2="1098.1654" y1="1028.1983" y2="1018.1983"/><line style="stroke:#181818;stroke-width:1;" x1="605.3904" x2="1093.1654" y1="1023.1983" y2="1023.1983"/><polygon fill="#181818" points="1225.427,1050.9043,1235.427,1054.9043,1225.427,1058.9043,1229.427,1054.9043" style="stroke:#181818;stroke-width:1;"/><line style="stroke:#181818;stroke-width:1;" x1="605.3904" x2="1231.427" y1="1054.9043" y2="1054.9043"/><text fill="#000000" font-family="sans-serif" font-size="13" lengthAdjust="spacing" textLength="124.0721" x="612.3904" y="1049.0953">get cheep list partial</text><polygon fill="#181818" points="1401.7581,1082.6103,1411.7581,1086.6103,1401.7581,1090.6103,1405.7581,1086.6103" style="stroke:#181818;stroke-width:1;"/><line style="stroke:#181818;stroke-width:1;" x1="1237.427" x2="1407.7581" y1="1086.6103" y2="1086.6103"/><text fill="#000000" font-family="sans-serif" font-size="13" lengthAdjust="spacing" textLength="57.9671" x="1244.427" y="1080.8013">Get DTOs</text><polygon fill="#181818" points="1248.427,1114.3163,1238.427,1118.3163,1248.427,1122.3163,1244.427,1118.3163" style="stroke:#181818;stroke-width:1;"/><line style="stroke:#181818;stroke-width:1;" x1="1242.427" x2="1412.7581" y1="1118.3163" y2="1118.3163"/><text fill="#000000" font-family="sans-serif" font-size="13" lengthAdjust="spacing" textLength="75.3091" x="1254.427" y="1112.5073">return DTOs</text><path d="M1167.3632,1133.3163 L1240.7032,1133.3163 L1240.7032,1143.0223 L1230.7032,1153.0223 L1167.3632,1153.0223 L1167.3632,1133.3163 " fill="#EEEEEE" style="stroke:#000000;stroke-width:1.5;"/><rect fill="none" height="172.5301" style="stroke:#000000;stroke-width:1.5;" width="462.9079" x="1167.3632" y="1133.3163"/><text fill="#000000" font-family="sans-serif" font-size="13" font-weight="bold" lengthAdjust="spacing" textLength="28.34" x="1182.3632" y="1148.2133">loop</text><text fill="#000000" font-family="sans-serif" font-size="11" font-weight="bold" lengthAdjust="spacing" textLength="111.0442" x="1255.7032" y="1147.0752">[foreach cheep DTO]</text><line style="stroke:#181818;stroke-width:1;" x1="1237.427" x2="1279.427" y1="1176.7284" y2="1176.7284"/><line style="stroke:#181818;stroke-width:1;" x1="1279.427" x2="1279.427" y1="1176.7284" y2="1189.7284"/><line style="stroke:#181818;stroke-width:1;" x1="1238.427" x2="1279.427" y1="1189.7284" y2="1189.7284"/><polygon fill="#181818" points="1248.427,1185.7284,1238.427,1189.7284,1248.427,1193.7284,1244.427,1189.7284" style="stroke:#181818;stroke-width:1;"/><text fill="#000000" font-family="sans-serif" font-size="13" lengthAdjust="spacing" textLength="81.7441" x="1244.427" y="1170.9194">render cheep</text><polygon fill="#181818" points="1565.5183,1217.4344,1575.5183,1221.4344,1565.5183,1225.4344,1569.5183,1221.4344" style="stroke:#181818;stroke-width:1;"/><line style="stroke:#181818;stroke-width:1;" x1="1237.427" x2="1571.5183" y1="1221.4344" y2="1221.4344"/><text fill="#000000" font-family="sans-serif" font-size="13" lengthAdjust="spacing" textLength="148.2001" x="1244.427" y="1215.6254">check for authentication</text><polygon fill="#181818" points="1248.427,1249.1404,1238.427,1253.1404,1248.427,1257.1404,1244.427,1253.1404" style="stroke:#181818;stroke-width:1;"/><line style="stroke:#181818;stroke-width:1;" x1="1242.427" x2="1576.5183" y1="1253.1404" y2="1253.1404"/><text fill="#000000" font-family="sans-serif" font-size="13" lengthAdjust="spacing" textLength="170.1052" x="1254.427" y="1247.3314">authentication status [false]</text><line style="stroke:#181818;stroke-width:1;" x1="1237.427" x2="1279.427" y1="1284.8464" y2="1284.8464"/><line style="stroke:#181818;stroke-width:1;" x1="1279.427" x2="1279.427" y1="1284.8464" y2="1297.8464"/><line style="stroke:#181818;stroke-width:1;" x1="1250.427" x2="1279.427" y1="1297.8464" y2="1297.8464"/><line style="stroke:#181818;stroke-width:2;" x1="1243.427" x2="1253.427" y1="1292.8464" y2="1302.8464"/><line style="stroke:#181818;stroke-width:2;" x1="1243.427" x2="1253.427" y1="1302.8464" y2="1292.8464"/><text fill="#000000" font-family="sans-serif" font-size="13" lengthAdjust="spacing" textLength="162.3312" x="1244.427" y="1279.0374">don't show comment form</text><polygon fill="#181818" points="616.3904,1332.5524,606.3904,1336.5524,616.3904,1340.5524,612.3904,1336.5524" style="stroke:#181818;stroke-width:1;"/><line style="stroke:#181818;stroke-width:1;" x1="610.3904" x2="1236.427" y1="1336.5524" y2="1336.5524"/><text fill="#000000" font-family="sans-serif" font-size="13" lengthAdjust="spacing" textLength="153.4911" x="622.3904" y="1330.7434">return cheep partial html</text><polygon fill="#181818" points="423.4641,1364.2584,413.4641,1368.2584,423.4641,1372.2584,419.4641,1368.2584" style="stroke:#181818;stroke-width:1;"/><line style="stroke:#181818;stroke-width:1;" x1="417.4641" x2="604.3904" y1="1368.2584" y2="1368.2584"/><text fill="#000000" font-family="sans-serif" font-size="13" lengthAdjust="spacing" textLength="144.7942" x="429.4641" y="1362.4494">return public page html</text><path d="M417,1381.2584 L417,1408.2584 L892,1408.2584 L892,1391.2584 L882,1381.2584 L417,1381.2584 " fill="#FEFFDD" style="stroke:#181818;stroke-width:0.5;"/><path d="M882,1381.2584 L882,1391.2584 L892,1391.2584 L882,1381.2584 " fill="#FEFFDD" style="stroke:#181818;stroke-width:0.5;"/><text fill="#000000" font-family="sans-serif" font-size="13" lengthAdjust="spacing" textLength="454.0643" x="423" y="1400.1555">Public page is now rendered and the server returns html contents to client</text><polygon fill="#181818" points="254.2629,1433.6705,244.2629,1437.6705,254.2629,1441.6705,250.2629,1437.6705" style="stroke:#181818;stroke-width:1;"/><line style="stroke:#181818;stroke-width:1;" x1="248.2629" x2="411.4641" y1="1437.6705" y2="1437.6705"/><text fill="#000000" font-family="sans-serif" font-size="13" lengthAdjust="spacing" textLength="86.3591" x="260.2629" y="1431.8615">HTTPS 200 OK</text><polygon fill="#181818" points="81.1528,1465.3765,71.1528,1469.3765,81.1528,1473.3765,77.1528,1469.3765" style="stroke:#181818;stroke-width:1;"/><line style="stroke:#181818;stroke-width:1;" x1="75.1528" x2="242.2629" y1="1469.3765" y2="1469.3765"/><text fill="#000000" font-family="sans-serif" font-size="13" lengthAdjust="spacing" textLength="116.8831" x="87.1528" y="1463.5675">displays front page</text><!--SRC=[ZLPDRzms4BtpLmoKGvD34QF770fqTu4sg0qxAmSDO1W1BSrAXBMaGb9rt5_V6P9BKHivYIxMpdlpE9mlsIi_87pKSlAziUe_RE6ZGmkt1lR6UAZnouIwGTWfsLbv125auus5-5JVU5O0qi7ah7WmN-7qLBtt8pHo65oLZQ_-wPN7-cWUKOpIUjMeKMeFrNPGI7zVRwnv8iatx4AYJJ0Br2sGzeg-9AHvbOzvIRz6-ozQM3waxu9zNR-GNOr_OoRTIliSo3VJmw0Qk94TLeN-6CnBwkT1Ffl9LsUXHEkIUcawfKcKBYA7QgQoUSdSzeWZR2Z-cKrCljGAxr8vFnCvpsnsOckqjsQ0yafNfiNJsKmzcfRovPL_Jddwexw1zsqq5JpfngLUE9eBeHeiUDjwAHTeUnoDKzHqKP5f-nUhn3rGVxYSgrLMwKnRsN6tuR3mQwe0Q-ysw-8BrPKMQAMN3z8XstV5UrdNGblGZC2llwUkXdVG6NJW3QMVueBU776a1X899sRiJsB-TNjxKqE77YoF9vNlhT368rZLzHxCOQPo3uAbNg9VZvh62Qgt5IYgd1n76bawBxObXCEI7nsMhE_2CIKblHE5Ya_ujVwJ69wExj1YAzYQGV9GMb9aiQTUim9Sl3cHjZLno7sxHCdCu7uTt0Tmjo7qmuJKof40TtXeZCLxmHXHLXZkot0l8Xe5BFh9weIV7CF1PyW-0rToFEbHyiBRxlOwK-eptuZLSqg-0PULYoG6G5e4HsrFPQB1bp3Ge8eY_t59f1AbZP5iZ8PraS3mFiOPFplmnAE0caUbEpZGTkUbpiFIIA-CfYYadtYhCrwhJh_NLr9JGMoODzxx8khGmJJh9DUmt8gMOBW8R_sakuCS79KoY-QxflGjRWIzFmvmHxQESaMy-o8FkP5FdX5XbpAPFnTr5lj-sCiCPwVmPQNP8nXIi7G9P-09eJNw5m-kDqz0od5UU4_agkLGFmLp6NiShbJhwCczabqJdbkG1pQqNXh3x9zI5B31c94pWRBfaoZP1I-oMQ_mr2rTBlm-u_mWit4pZWkrxsTt8VzfzYfIs9ZZaRScdNVaZIkA79mtHBnRsKfbRlCcJUnY5KRkIuktu8MIFwKSKT5vPhZ8YHoLNUpYXZz7siSlGVo7PrxA-LiHlm2_NLp0zT_55u8_APG7vKRgSWS7Is9nQmlnFm00]--></g></svg>